<svg width="33" height="32" viewBox="0 0 33 32" fill="none" xmlns="http://www.w3.org/2000/svg">
<path fill-rule="evenodd" clip-rule="evenodd" d="M16.666 5C14.4693 5 12.5201 6.39985 11.8304 8.47277L5.66602 27H8.16394L9.52334 22.9143H23.8087L25.1681 27H27.666L21.5017 8.47277C20.812 6.39985 18.8627 5 16.666 5ZM18.7814 20.5571H10.3076L12.0433 15.3403L18.7814 20.5571ZM23.0511 20.5571L14.9737 14.4286H20.9853L23.0244 20.5571H23.0511ZM19.25 9.21283L20.2011 12.0714H13.131L14.0821 9.21283C14.4506 8.10516 15.4922 7.35714 16.666 7.35714C17.8398 7.35714 18.8814 8.10516 19.25 9.21283Z" fill="#292930"/>
</svg>
