<svg width="20" height="20" viewBox="0 0 20 20" fill="none" xmlns="http://www.w3.org/2000/svg">
<path d="M9.99956 19.9999C15.5222 19.9999 19.9991 15.523 19.9991 10.0004C19.9991 4.47777 15.5222 0.000804901 9.99956 0.000804901C4.47696 0.000804901 0 4.47777 0 10.0004C0 15.523 4.47696 19.9999 9.99956 19.9999Z" fill="white"/>
<path d="M19.4289 6.66581H13.2676C13.5352 8.80198 13.5368 11.1557 13.2728 13.2945H19.442C19.8022 12.2627 20.0002 11.1546 20.0002 10.0001C20.0004 8.83039 19.7978 7.70871 19.4289 6.66581Z" fill="#3757A6"/>
<path d="M13.2677 6.66581H19.4289C19.428 6.66264 19.427 6.65998 19.4257 6.65711C18.146 3.04847 14.8539 0.393472 10.8984 0.0410404C12.4293 0.880088 12.8764 3.53842 13.2677 6.66581Z" fill="#EFEFEF"/>
<path d="M10.8984 19.9585C14.8609 19.6054 18.1576 16.9413 19.4325 13.323C19.4358 13.3133 19.4386 13.3038 19.4421 13.2945H13.2727C12.8844 16.4389 12.4354 19.1159 10.8984 19.9585Z" fill="#E73B36"/>
<path d="M0 10C0 11.1547 0.19832 12.2627 0.558141 13.2945H13.787C14.0513 11.1555 14.0494 8.80193 13.7821 6.66577H0.571441C0.202584 7.70871 0 8.83039 0 10Z" fill="#3757A6"/>
<path d="M0.575432 6.65716C0.574503 6.65999 0.573532 6.66269 0.572266 6.66586H13.783C13.3914 3.53843 12.4295 0.880131 10.8989 0.0410824C10.6028 0.0148621 10.3035 4.19622e-05 10.0007 4.19622e-05C5.6505 -2.60497e-07 1.95117 2.77829 0.575432 6.65716Z" fill="#EFEFEF"/>
<path d="M13.7875 13.2945H0.558594C0.561929 13.3038 0.565054 13.3133 0.56822 13.3229C1.93847 17.2117 5.64312 19.9998 10.0002 19.9998C10.3031 19.9998 10.6025 19.985 10.8985 19.9585C12.4356 19.1159 13.3992 16.4389 13.7875 13.2945Z" fill="#E73B36"/>
</svg>
