<svg width="33" height="32" viewBox="0 0 33 32" fill="none" xmlns="http://www.w3.org/2000/svg">
<path d="M9.66667 25.3333C8.2 25.3333 7 26.5333 7 28H25.6667C25.6667 26.5333 24.4667 25.3333 23 25.3333H17.6667V22.6666H21.6667C23.1333 22.6666 24.3333 21.4666 24.3333 20H13.6667C11.4533 20 9.66667 18.2133 9.66667 16C9.66667 14.5466 10.4533 13.28 11.6133 12.5866C11.2267 12.04 11 11.3866 11 10.6666C11 10.3866 11.0533 10.1066 11.12 9.83997C8.70667 10.84 7 13.2266 7 16C7 19.68 9.98667 22.6666 13.6667 22.6666V25.3333H9.66667Z" fill="#292930"/>
<path d="M14.4127 7.34663C16.2127 7.38663 17.666 8.85329 17.666 10.6666C17.666 11.6666 17.226 12.5466 16.5327 13.16L17.3193 15.32L18.5727 14.8666L19.026 16.12L21.5327 15.2133L21.0793 13.96L22.3327 13.5066L18.6793 3.46663L17.426 3.91996L16.9727 2.66663L14.466 3.57329L14.9193 4.82663L13.666 5.29329L14.4127 7.34663Z" fill="#292930"/>
<path d="M14.334 12.6666C15.4386 12.6666 16.334 11.7712 16.334 10.6666C16.334 9.56206 15.4386 8.66663 14.334 8.66663C13.2294 8.66663 12.334 9.56206 12.334 10.6666C12.334 11.7712 13.2294 12.6666 14.334 12.6666Z" fill="#292930"/>
</svg>
