<svg width="16" height="16" viewBox="0 0 16 16" fill="none" xmlns="http://www.w3.org/2000/svg">
<path d="M15.9656 8.74824H0.0371094V8.74848H15.9656V8.74824Z" fill="#C42126"/>
<path d="M15.1339 4.38105H0.865234V4.38128H15.1339V4.38105Z" fill="#C42126"/>
<path d="M15.7017 5.83655H0.298828V5.83679H15.7017V5.83655Z" fill="#C42126"/>
<path d="M3.43801 14.5706H12.5614L12.5618 14.5701H3.4375L3.43801 14.5706Z" fill="#C42126"/>
<path d="M8.00096 0C7.84383 0 7.68794 0.00567475 7.5332 0.0145247H8.46882C8.31395 0.00567475 8.1581 0 8.00096 0Z" fill="#C42126"/>
<path d="M15.9668 7.2924H0.0332031V7.29263H15.9668V7.2924Z" fill="#C42126"/>
<path d="M10.3638 2.92551H14.1838C13.7301 2.37313 13.2028 1.88416 12.6185 1.4702H9.75C9.98736 1.8878 10.1915 2.38056 10.3638 2.92551Z" fill="white"/>
<path d="M9.74988 1.47021H12.6184C11.4326 0.629836 10.0088 0.10357 8.46702 0.0145302H8.2207C8.9464 0.105867 9.27972 0.642942 9.74988 1.47021Z" fill="#DC3027"/>
<path d="M15.7025 5.83669C15.5602 5.3294 15.3695 4.84269 15.1351 4.38138H10.7402C10.8293 4.84864 10.8995 5.3367 10.9516 5.83669H15.7025Z" fill="white"/>
<path d="M10.4916 4.38115H15.1334C14.8689 3.86086 14.5511 3.37263 14.1838 2.92561H10.1289C10.2719 3.3782 10.3933 3.86643 10.4916 4.38115Z" fill="#DC3027"/>
<path d="M11.1191 8.7479H15.964C15.987 8.50172 16 8.25224 16 8.00012C16 7.76151 15.9875 7.52594 15.967 7.2925H11.1203C11.1361 7.77654 11.1358 8.26413 11.1191 8.7479Z" fill="white"/>
<path d="M15.9665 7.29226C15.9227 6.79241 15.8326 6.3061 15.7011 5.83696H10.7461C10.7958 6.31353 10.8287 6.80112 10.8448 7.29226H15.9665Z" fill="#DC3027"/>
<path d="M10.6562 11.6591H15.1137C15.3514 11.1983 15.5452 10.7112 15.6905 10.2036H10.8718C10.8187 10.7043 10.7467 11.1923 10.6562 11.6591Z" fill="white"/>
<path d="M15.691 10.2035C15.8252 9.73446 15.9185 9.24816 15.9648 8.74817H10.9689C10.9518 9.23968 10.918 9.72713 10.8672 10.2035H15.691Z" fill="#DC3027"/>
<path d="M12.5619 14.5701C13.1546 14.1578 13.6894 13.6683 14.1504 13.1148H10.3969C10.2214 13.662 10.0131 14.154 9.77148 14.5701H12.5619Z" fill="white"/>
<path d="M10.2559 13.1147H14.1506C14.5222 12.6682 14.8448 12.1799 15.1132 11.6592H10.6231C10.5234 12.1742 10.4008 12.6627 10.2559 13.1147Z" fill="#DC3027"/>
<path d="M7.71062 15.9943C7.69444 15.9938 7.67829 15.9931 7.66211 15.9926C7.67829 15.993 7.69447 15.9938 7.71062 15.9943Z" fill="#DC3027"/>
<path d="M8 16C9.69604 16 11.2675 15.4706 12.5618 14.5706H9.66649C9.15262 15.4559 8.81358 16 8 16Z" fill="#DC3027"/>
<path d="M8.00082 16C7.90368 16 7.80717 15.9977 7.71094 15.9943C7.80818 15.9976 7.90479 16 8.00082 16Z" fill="#C42126"/>
<path d="M10.0165 1.4702H3.38186C2.79753 1.88416 2.27029 2.3731 1.81641 2.92551H10.6301C10.4578 2.38056 10.2538 1.8878 10.0165 1.4702Z" fill="white"/>
<path d="M3.38086 1.47021H10.0155C9.54523 0.642942 8.94712 0.105867 8.22142 0.0145302H7.53211C5.9903 0.10357 4.56658 0.629836 3.38086 1.47021Z" fill="#E73625"/>
<path d="M0.298828 5.83669H11.2035C11.1514 5.3366 11.0812 4.84864 10.9922 4.38138H0.866236C0.631781 4.84273 0.441069 5.3294 0.298828 5.83669Z" fill="white"/>
<path d="M1.81474 2.9255C1.44767 3.37252 1.12962 3.86072 0.865234 4.38104H10.991C10.8929 3.86643 10.7715 3.37823 10.6285 2.9255C10.6285 2.9255 1.81474 2.9255 1.81474 2.9255Z" fill="#E73625"/>
<path d="M0 8.00012C0 8.25224 0.0131398 8.50172 0.0360077 8.7479H11.3008C11.3175 8.26409 11.3177 7.77664 11.3019 7.29259H0.0329676C0.012498 7.52594 0 7.76151 0 8.00012Z" fill="white"/>
<path d="M0.0332031 7.29226H11.302C11.286 6.80102 11.253 6.31357 11.2033 5.83696H0.298464C0.166965 6.3062 0.0769122 6.79241 0.0332031 7.29226Z" fill="#E73625"/>
<path d="M11.1998 10.2035H0.310547C0.455827 10.7113 0.649715 11.1982 0.887311 11.659H10.9843C11.0747 11.1923 11.1466 10.7043 11.1998 10.2035Z" fill="white"/>
<path d="M0.308997 10.2035H11.1982C11.2489 9.72713 11.2829 9.23955 11.2999 8.74817H0.0351562C0.0815001 9.24826 0.174863 9.73446 0.308997 10.2035Z" fill="#E73625"/>
<path d="M3.43803 14.5701H9.99133C10.233 14.1539 10.4414 13.662 10.6167 13.1148H1.84961C2.31055 13.6683 2.84522 14.1578 3.43803 14.5701Z" fill="white"/>
<path d="M0.886719 11.6591C1.15515 12.1799 1.47774 12.6681 1.84937 13.1147H10.6165C10.7613 12.6627 10.8839 12.1742 10.9836 11.6591H0.886719Z" fill="#E73625"/>
<path d="M7.66063 15.9925C7.67681 15.993 7.69296 15.9938 7.70914 15.9943C7.8054 15.9977 7.90191 16 7.99902 16C8.81264 16 9.47604 15.4559 9.99001 14.5706H3.4375C4.64497 15.4104 6.09433 15.9272 7.66063 15.9925Z" fill="#E73625"/>
<path d="M7.83373 0.00415421C3.73416 0.0875528 0.392807 3.25288 0.0332031 7.27922H7.83386V0.00415421H7.83373Z" fill="#283991"/>
<path d="M1.60076 4.53262L1.72263 4.90789H2.1175L1.79806 5.13995L1.92006 5.5155L1.60076 5.2833L1.28155 5.5155L1.40332 5.13995L1.08398 4.90789H1.47885L1.60076 4.53262Z" fill="white"/>
<path d="M1.60076 5.85844L1.72263 6.23395H2.1175L1.79806 6.46601L1.92006 6.84156L1.60076 6.60937L1.28155 6.84156L1.40332 6.46601L1.08398 6.23395H1.47885L1.60076 5.85844Z" fill="white"/>
<path d="M2.92707 2.54337L3.04897 2.91879H3.4437L3.12436 3.15098L3.24627 3.52625L2.92707 3.29433L2.60773 3.52625L2.72963 3.15098L2.41016 2.91879H2.80502L2.92707 2.54337Z" fill="white"/>
<path d="M2.92707 3.86944L3.04897 4.24485H3.4437L3.12436 4.47677L3.24627 4.85232L2.92707 4.6204L2.60773 4.85232L2.72963 4.47677L2.41016 4.24485H2.80502L2.92707 3.86944Z" fill="white"/>
<path d="M2.92707 5.19551L3.04897 5.57106H3.4437L3.12436 5.80285L3.24627 6.17839L2.92707 5.94623L2.60773 6.17839L2.72963 5.80285L2.41016 5.57106H2.80502L2.92707 5.19551Z" fill="white"/>
<path d="M0.594276 6.17839L0.472269 5.80284L0.791609 5.57092H0.396977L0.388127 5.54353C0.344789 5.67756 0.30564 5.81321 0.269531 5.95039L0.275105 5.94623L0.594276 6.17839Z" fill="white"/>
<path d="M1.28167 4.18943L1.60088 3.95727L1.92022 4.18943L1.79821 3.81388L2.11755 3.58172H1.72268L1.60078 3.20644L1.47887 3.58172H1.33335C1.30633 3.62266 1.28019 3.66383 1.25391 3.70538L1.40348 3.81388L1.28167 4.18943Z" fill="white"/>
<path d="M2.92703 1.96826L3.24624 2.20018L3.12433 1.8249L3.44354 1.59275H3.21553C3.02188 1.73752 2.83505 1.89074 2.65556 2.0524L2.60742 2.20018L2.92703 1.96826Z" fill="white"/>
<path d="M3.93359 1.53729L4.25294 1.30513L4.57214 1.53729L4.45024 1.16174L4.76944 0.92982H4.37471L4.35816 0.879288C4.22439 0.947621 4.09201 1.01872 3.96264 1.09439L4.05537 1.16171L3.93359 1.53729Z" fill="white"/>
<path d="M4.25321 1.88048L4.37511 2.25565H4.76985L4.45051 2.48781L4.57241 2.86336L4.25321 2.63116L3.93386 2.86336L4.05577 2.48781L3.73633 2.25565H4.13116L4.25321 1.88048Z" fill="white"/>
<path d="M4.25321 3.20654L4.37511 3.58172H4.76985L4.45051 3.81388L4.57241 4.18943L4.25321 3.95724L3.93386 4.18943L4.05577 3.81388L3.73633 3.58172H4.13116L4.25321 3.20654Z" fill="white"/>
<path d="M4.25321 4.53262L4.37511 4.90789H4.76985L4.45051 5.13995L4.57241 5.5155L4.25321 5.2833L3.93386 5.5155L4.05577 5.13995L3.73633 4.90789H4.13116L4.25321 4.53262Z" fill="white"/>
<path d="M4.25321 5.85844L4.37511 6.23395H4.76985L4.45051 6.46601L4.57241 6.84156L4.25321 6.60937L3.93386 6.84156L4.05577 6.46601L3.73633 6.23395H4.13116L4.25321 5.85844Z" fill="white"/>
<path d="M5.57937 1.2173L5.70128 1.59272H6.09601L5.77681 1.82491L5.89858 2.20019L5.57937 1.96826L5.25993 2.20019L5.38194 1.82491L5.0625 1.59272H5.45733L5.57937 1.2173Z" fill="white"/>
<path d="M5.57937 2.54337L5.70128 2.91879H6.09601L5.77681 3.15098L5.89858 3.52625L5.57937 3.29433L5.25993 3.52625L5.38194 3.15098L5.0625 2.91879H5.45733L5.57937 2.54337Z" fill="white"/>
<path d="M5.57937 3.86944L5.70128 4.24485H6.09601L5.77681 4.47677L5.89858 4.85232L5.57937 4.6204L5.25993 4.85232L5.38194 4.47677L5.0625 4.24485H5.45733L5.57937 3.86944Z" fill="white"/>
<path d="M5.57937 5.19551L5.70128 5.57106H6.09601L5.77681 5.80285L5.89858 6.17839L5.57937 5.94623L5.25993 6.17839L5.38194 5.80285L5.0625 5.57106H5.45733L5.57937 5.19551Z" fill="white"/>
<path d="M6.90555 0.554405L7.02745 0.929818H7.42219L7.10285 1.16174L7.22475 1.53729L6.90555 1.30509L6.58611 1.53729L6.70811 1.16174L6.38867 0.929818H6.7834L6.90555 0.554405Z" fill="white"/>
<path d="M6.90555 1.88048L7.02745 2.25565H7.42219L7.10285 2.48781L7.22475 2.86336L6.90555 2.63116L6.58611 2.86336L6.70811 2.48781L6.38867 2.25565H6.7834L6.90555 1.88048Z" fill="white"/>
<path d="M6.90555 3.20654L7.02745 3.58172H7.42219L7.10285 3.81388L7.22475 4.18943L6.90555 3.95724L6.58611 4.18943L6.70811 3.81388L6.38867 3.58172H6.7834L6.90555 3.20654Z" fill="white"/>
<path d="M6.90555 4.53262L7.02745 4.90789H7.42219L7.10285 5.13995L7.22475 5.5155L6.90555 5.2833L6.58611 5.5155L6.70811 5.13995L6.38867 4.90789H6.7834L6.90555 4.53262Z" fill="white"/>
<path d="M6.90555 5.85844L7.02745 6.23395H7.42219L7.10285 6.46601L7.22475 6.84156L6.90555 6.60937L6.58611 6.84156L6.70811 6.46601L6.38867 6.23395H6.7834L6.90555 5.85844Z" fill="white"/>
</svg>
