<svg width="24" height="24" viewBox="0 0 24 24" fill="none" xmlns="http://www.w3.org/2000/svg">
<path d="M9 15C6.33 15 1 16.34 1 19V21H17V19C17 16.34 11.67 15 9 15Z" fill="#292930"/>
<path d="M22.1008 6.84C22.1108 6.73 22.1208 6.62 22.1208 6.5C22.1208 6.38 22.1108 6.27 22.0908 6.16L22.8308 5.58C22.9008 5.53 22.9108 5.43 22.8708 5.36L22.1708 4.15C22.1308 4.07 22.0308 4.05 21.9608 4.07L21.1008 4.42C20.9208 4.28 20.7208 4.17 20.5108 4.08L20.3808 3.15C20.3608 3.06 20.2908 3 20.2008 3H18.8008C18.7108 3 18.6408 3.06 18.6308 3.15L18.5008 4.08C18.2908 4.17 18.0908 4.29 17.9108 4.42L17.0408 4.07C16.9608 4.04 16.8708 4.07 16.8308 4.15L16.1308 5.36C16.0908 5.44 16.1008 5.53 16.1708 5.58L16.9108 6.16C16.8908 6.27 16.8808 6.39 16.8808 6.5C16.8808 6.61 16.8908 6.73 16.9108 6.84L16.1708 7.42C16.1008 7.47 16.0908 7.57 16.1308 7.64L16.8308 8.85C16.8708 8.93 16.9708 8.95 17.0408 8.93L17.9108 8.58C18.0908 8.72 18.2908 8.83 18.5008 8.92L18.6308 9.85C18.6408 9.94 18.7108 10 18.8008 10H20.2008C20.2908 10 20.3608 9.94 20.3708 9.85L20.5008 8.92C20.7108 8.83 20.9108 8.71 21.0908 8.58L21.9608 8.93C22.0408 8.96 22.1308 8.93 22.1708 8.85L22.8708 7.64C22.9108 7.56 22.9008 7.47 22.8308 7.42L22.1008 6.84ZM19.5008 7.75C18.8108 7.75 18.2508 7.19 18.2508 6.5C18.2508 5.81 18.8108 5.25 19.5008 5.25C20.1908 5.25 20.7508 5.81 20.7508 6.5C20.7508 7.19 20.1908 7.75 19.5008 7.75Z" fill="#292930"/>
<path d="M19.9209 11.68L19.4209 10.81C19.3909 10.75 19.3209 10.73 19.2709 10.75L18.6509 11C18.5209 10.9 18.3809 10.82 18.2309 10.76L18.1409 10.1C18.1209 10.04 18.0609 10 18.0009 10H17.0009C16.9409 10 16.8909 10.04 16.8809 10.11L16.7909 10.77C16.6409 10.83 16.5009 10.92 16.3709 11.01L15.7509 10.76C15.6909 10.74 15.6309 10.76 15.6009 10.82L15.1009 11.69C15.0709 11.75 15.0809 11.81 15.1309 11.85L15.6609 12.26C15.6509 12.34 15.6409 12.42 15.6409 12.5C15.6409 12.58 15.6509 12.67 15.6609 12.74L15.1309 13.15C15.0809 13.19 15.0709 13.26 15.1009 13.31L15.6009 14.18C15.6309 14.24 15.7009 14.26 15.7509 14.24L16.3709 13.99C16.5009 14.09 16.6409 14.17 16.7909 14.23L16.8809 14.89C16.8909 14.96 16.9409 15 17.0009 15H18.0009C18.0609 15 18.1209 14.96 18.1209 14.89L18.2109 14.23C18.3609 14.17 18.5009 14.08 18.6309 13.99L19.2509 14.24C19.3109 14.26 19.3709 14.24 19.4009 14.18L19.9009 13.31C19.9309 13.25 19.9209 13.19 19.8709 13.15L19.3509 12.74C19.3609 12.66 19.3709 12.58 19.3709 12.5C19.3709 12.42 19.3609 12.33 19.3509 12.26L19.8809 11.85C19.9309 11.81 19.9409 11.74 19.9209 11.68ZM17.5009 13.33C17.0409 13.33 16.6709 12.95 16.6709 12.5C16.6709 12.04 17.0509 11.67 17.5009 11.67C17.9509 11.67 18.3309 12.05 18.3309 12.5C18.3309 12.96 17.9609 13.33 17.5009 13.33Z" fill="#292930"/>
<path d="M4.74 9H13.27C13.54 9 13.76 8.78 13.76 8.51V8.49C13.76 8.22 13.54 8 13.27 8H13C13 6.52 12.19 5.25 11 4.55V5.5C11 5.78 10.78 6 10.5 6C10.22 6 10 5.78 10 5.5V4.14C9.68 4.06 9.35 4 9 4C8.65 4 8.32 4.06 8 4.14V5.5C8 5.78 7.78 6 7.5 6C7.22 6 7 5.78 7 5.5V4.55C5.81 5.25 5 6.52 5 8H4.74C4.47 8 4.25 8.22 4.25 8.49V8.52C4.25 8.78 4.47 9 4.74 9Z" fill="#292930"/>
<path d="M9.00063 13C10.8606 13 12.4106 11.72 12.8606 10H5.14062C5.59062 11.72 7.14062 13 9.00063 13Z" fill="#292930"/>
</svg>
