<svg width="130" height="26" viewBox="0 0 130 26" fill="none" xmlns="http://www.w3.org/2000/svg">
<path d="M7.12918 14.2029C7.29573 14.8694 7.59996 15.496 8.02638 16.0371L6.22127 17.5615C5.71678 16.9216 5.32612 16.2021 5.06065 15.4363C4.78617 14.6446 4.64553 13.8033 4.6513 12.9496C4.65706 12.0959 4.80904 11.2568 5.09417 10.4691C5.36995 9.70719 5.77028 8.99338 6.28336 8.36083L8.06841 9.91031C7.62028 10.4628 7.30128 11.1084 7.12918 11.7971H16.1287C15.962 11.1297 15.6574 10.5023 15.2303 9.96061L17.0344 8.43848C17.5389 9.07837 17.9295 9.79791 18.195 10.5637C18.4695 11.3554 18.6101 12.1967 18.6043 13.0504C18.5986 13.9041 18.4466 14.7432 18.1615 15.5309C17.8857 16.2928 17.4853 17.0066 16.9723 17.6392L15.1889 16.0911C15.6373 15.5382 15.9565 14.8922 16.1287 14.2029H7.12918Z" fill="white"/>
<path fill-rule="evenodd" clip-rule="evenodd" d="M3.40412 4.49273C5.6706 2.1481 8.41331 0.971226 11.6278 0.971226C14.8423 0.971226 17.585 2.14354 19.8515 4.49273C22.118 6.84192 23.2556 9.67464 23.2556 13C23.2556 16.3254 22.1224 19.1626 19.8515 21.5073C17.5806 23.8519 14.8379 25.0288 11.6278 25.0288C8.41331 25.0288 5.6706 23.8565 3.40412 21.5073C1.13765 19.1581 0 16.3254 0 13C0 9.67464 1.13324 6.83736 3.40412 4.49273ZM5.04854 6.19386L5.04695 6.19551C3.21526 8.08668 2.32556 10.3104 2.32556 13C2.32556 15.6861 3.21745 17.9082 5.05014 19.8078C6.87827 21.7026 9.02791 22.623 11.6278 22.623C14.2205 22.623 16.3728 21.7 18.2087 19.8045C20.0404 17.9133 20.9301 15.6896 20.9301 13C20.9301 10.3139 20.0382 8.09178 18.2055 6.1922C16.3774 4.29735 14.2277 3.37698 11.6278 3.37698C9.02991 3.37698 6.87877 4.30052 5.04854 6.19386Z" fill="white"/>
<path d="M86.3019 19.5629C87.4181 20.1531 88.6627 20.4482 90.0356 20.4482C91.2032 20.4482 92.2617 20.2429 93.2112 19.8323C94.1607 19.4218 94.9562 18.8251 95.5977 18.0425L93.5961 16.1948C92.6851 17.2598 91.556 17.7923 90.2088 17.7923C89.3748 17.7923 88.6306 17.6126 87.9763 17.2534C87.3219 16.8813 86.8087 16.3681 86.4366 15.7137C86.0773 15.0593 85.8977 14.3151 85.8977 13.4812C85.8977 12.6472 86.0773 11.903 86.4366 11.2486C86.8087 10.5942 87.3219 10.0874 87.9763 9.72818C88.6306 9.35608 89.3748 9.17004 90.2088 9.17004C91.556 9.17004 92.6851 9.6961 93.5961 10.7482L95.5977 8.9006C94.9562 8.13075 94.1607 7.54054 93.2112 7.12996C92.2746 6.71938 91.2224 6.51409 90.0548 6.51409C88.6691 6.51409 87.4181 6.81561 86.3019 7.41865C85.1984 8.00886 84.3259 8.83644 83.6844 9.90139C83.0557 10.9535 82.7413 12.1468 82.7413 13.4812C82.7413 14.8155 83.0557 16.0152 83.6844 17.0802C84.3259 18.1323 85.1984 18.9599 86.3019 19.5629Z" fill="white"/>
<path d="M33.9747 9.28552H29.6636V6.74504H41.4037V9.28552H37.0926V20.2173H33.9747V9.28552Z" fill="white"/>
<path d="M54.09 17.7153V20.2173H43.6587V6.74504H53.8398V9.24702H46.7573V12.1724H53.0122V14.5974H46.7573V17.7153H54.09Z" fill="white"/>
<path d="M56.0127 9.28552H60.3238V20.2173H63.4416V9.28552H67.7527V6.74504H56.0127V9.28552Z" fill="white"/>
<path fill-rule="evenodd" clip-rule="evenodd" d="M77.7254 17.3304H71.4704L70.2771 20.2173H67.0823L73.0871 6.74504H76.1664L82.1904 20.2173H78.9186L77.7254 17.3304ZM76.7438 14.9631L74.6075 9.80516L72.4712 14.9631H76.7438Z" fill="white"/>
<path fill-rule="evenodd" clip-rule="evenodd" d="M104.523 20.4482C103.125 20.4482 101.861 20.1467 100.732 19.5437C99.6153 18.9406 98.7364 18.113 98.0949 17.0609C97.4662 15.996 97.1518 14.8027 97.1518 13.4812C97.1518 12.1596 97.4662 10.9728 98.0949 9.92064C98.7364 8.85569 99.6153 8.02169 100.732 7.41865C101.861 6.81561 103.125 6.51409 104.523 6.51409C105.922 6.51409 107.179 6.81561 108.295 7.41865C109.412 8.02169 110.29 8.85569 110.932 9.92064C111.574 10.9728 111.894 12.1596 111.894 13.4812C111.894 14.8027 111.574 15.996 110.932 17.0609C110.29 18.113 109.412 18.9406 108.295 19.5437C107.179 20.1467 105.922 20.4482 104.523 20.4482ZM104.523 17.7923C105.319 17.7923 106.037 17.6126 106.679 17.2534C107.32 16.8813 107.821 16.3681 108.18 15.7137C108.552 15.0593 108.738 14.3151 108.738 13.4812C108.738 12.6472 108.552 11.903 108.18 11.2486C107.821 10.5942 107.32 10.0874 106.679 9.72818C106.037 9.35608 105.319 9.17004 104.523 9.17004C103.728 9.17004 103.009 9.35608 102.368 9.72818C101.726 10.0874 101.219 10.5942 100.847 11.2486C100.488 11.903 100.308 12.6472 100.308 13.4812C100.308 14.3151 100.488 15.0593 100.847 15.7137C101.219 16.3681 101.726 16.8813 102.368 17.2534C103.009 17.6126 103.728 17.7923 104.523 17.7923Z" fill="white"/>
<path d="M127.055 12.1339L127.075 20.2173H130L129.962 6.74504H127.402L122.436 15.1171L117.394 6.74504H114.815V20.2173H117.74V12.3071L121.686 18.7931H123.091L127.055 12.1339Z" fill="white"/>
</svg>
